<svg width="44" height="54" viewBox="0 0 44 54" fill="none" xmlns="http://www.w3.org/2000/svg">
  <path
	fill-rule="evenodd"
	clip-rule="evenodd"
	d="M8 4C8 6.20914 6.20914 8 4 8C1.79086 8 0 6.20914 0 4C0 1.79086 1.79086 0 4 0C6.20914 0 8 1.79086 8 4ZM4 30C6.20914 30 8 28.2091 8 26C8 23.7909 6.20914 22 4 22C1.79086 22 0 23.7909 0 26C0 28.2091 1.79086 30 4 30ZM4 52C6.20914 52 8 50.2091 8 48C8 45.7909 6.20914 44 4 44C1.79086 44 0 45.7909 0 48C0 50.2091 1.79086 52 4 52ZM44 27C44 29.2091 42.2091 31 40 31C37.7909 31 36 29.2091 36 27C36 24.7909 37.7909 23 40 23C42.2091 23 44 24.7909 44 27ZM40 54C42.2091 54 44 52.2091 44 50C44 47.7909 42.2091 46 40 46C37.7909 46 36 47.7909 36 50C36 52.2091 37.7909 54 40 54ZM40 8C42.2091 8 44 6.20914 44 4C44 1.79086 42.2091 0 40 0C37.7909 0 36 1.79086 36 4C36 6.20914 37.7909 8 40 8Z"
	fill="white"/>
</svg>