<?xml version="1.0" encoding="utf-8"?>
<!-- Generator: Adobe Illustrator 25.2.0, SVG Export Plug-In . SVG Version: 6.00 Build 0)  -->
<svg version="1.1" id="图层_1" xmlns="http://www.w3.org/2000/svg" xmlns:xlink="http://www.w3.org/1999/xlink" x="0px" y="0px"
	 viewBox="0 0 104.2 40" style="enable-background:new 0 0 104.2 40;" xml:space="preserve">
<style type="text/css">
	.st0{fill:url(#SVGID_1_);}
	.st1{fill:url(#SVGID_2_);}
	.st2{fill:url(#SVGID_3_);}
	.st3{fill:#FFFFFF;}
</style>
<g>
	<g>
		
			<linearGradient id="SVGID_1_" gradientUnits="userSpaceOnUse" x1="-6.1526" y1="32.5816" x2="35.1804" y2="8.718" gradientTransform="matrix(1 0 0 -1 0 42)">
			<stop  offset="0" style="stop-color:#46D8E7"/>
			<stop  offset="0.9944" style="stop-color:#D000FF"/>
		</linearGradient>
		<path class="st0" d="M-0.7,0h19.1c3.8,0,20.3,0.9,20.3,19.9c0,21.6-18,20.1-20.3,20.1H-0.7V0z M9.7,9.1v21.8H17
			c2.7,0,12-0.5,12-10.8c0-11.1-8.6-11-12-11L9.7,9.1L9.7,9.1z"/>
	</g>
	
		<linearGradient id="SVGID_2_" gradientUnits="userSpaceOnUse" x1="16.5057" y1="1.9867" x2="16.5057" y2="36.2003" gradientTransform="matrix(1 0 0 -1 0 42)">
		<stop  offset="0" style="stop-color:#00C9F3"/>
		<stop  offset="3.518492e-03" style="stop-color:#01C8F3"/>
		<stop  offset="0.2778" style="stop-color:#4A82F7"/>
		<stop  offset="0.5237" style="stop-color:#834AFB"/>
		<stop  offset="0.7325" style="stop-color:#AD22FD"/>
		<stop  offset="0.8961" style="stop-color:#C709FE"/>
		<stop  offset="0.9944" style="stop-color:#D000FF"/>
	</linearGradient>
	<polygon class="st1" points="33.7,5.8 30.3,7.5 -0.7,40 1,40 	"/>
	
		<linearGradient id="SVGID_3_" gradientUnits="userSpaceOnUse" x1="29.0077" y1="40.8832" x2="-5.2996" y2="6.5759" gradientTransform="matrix(1 0 0 -1 0 42)">
		<stop  offset="0" style="stop-color:#46D8E7"/>
		<stop  offset="0.1828" style="stop-color:#48D5E7"/>
		<stop  offset="0.3226" style="stop-color:#4ECBE8"/>
		<stop  offset="0.4481" style="stop-color:#59BBEA"/>
		<stop  offset="0.5653" style="stop-color:#67A4ED"/>
		<stop  offset="0.6767" style="stop-color:#7A86F0"/>
		<stop  offset="0.7837" style="stop-color:#9261F4"/>
		<stop  offset="0.8873" style="stop-color:#AE36F9"/>
		<stop  offset="0.9856" style="stop-color:#CD05FE"/>
		<stop  offset="0.9944" style="stop-color:#D000FF"/>
	</linearGradient>
	<polygon class="st2" points="33.7,5.8 -0.7,21.5 -0.7,40 	"/>
</g>
<g>
	<g>
		<path class="st3" d="M62.2,26.9h-15c0,1.2,0.2,2.1,0.6,2.7c0.6,0.8,1.5,1.3,2.7,1.3c0.7,0,1.5-0.2,2.2-0.5
			c0.4-0.2,0.9-0.6,1.5-1.2l7.3,0.7c-1.4,2-2.9,3.4-4.6,4.2c-1.7,0.9-4,1.3-7,1.3c-2.6,0-4.6-0.4-6-1.1c-1.4-0.7-2.5-1.9-3.3-3.5
			s-1-3.5-0.8-5.6c0.4-3.1,1.7-5.5,3.8-7.4c2.2-1.9,5-2.8,8.5-2.8c2.8,0,5,0.4,6.5,1.3c1.5,0.8,2.6,2.1,3.2,3.7
			c0.7,1.6,0.8,3.7,0.5,6.3L62.2,26.9z M55,23.3c0-1.5-0.2-2.5-0.8-3.1c-0.6-0.6-1.3-0.9-2.4-0.9c-1.2,0-2.2,0.5-3,1.4
			c-0.5,0.6-0.9,1.5-1.2,2.6L55,23.3L55,23.3z"/>
		<path class="st3" d="M66,15.3h7l-0.4,3.2c0.8-1.4,1.7-2.3,2.4-2.9c0.8-0.5,1.7-0.8,2.7-0.8c1.1,0,2.3,0.3,3.5,1l-3,5.3
			c-0.8-0.4-1.5-0.5-2-0.5c-1,0-1.8,0.4-2.4,1.2c-0.9,1.1-1.6,3.3-2,6.4l-0.8,6.5h-7.5L66,15.3z"/>
		<path class="st3" d="M88.8,21.6l-7.1-0.7c0.4-1.2,0.9-2.2,1.5-3s1.4-1.3,2.4-1.9c0.7-0.4,1.7-0.7,2.9-0.9c1.2-0.2,2.5-0.3,3.9-0.3
			c2.2,0,4,0.1,5.4,0.4s2.4,0.8,3.2,1.6c0.6,0.5,1,1.3,1.2,2.3c0.2,1,0.3,2,0.2,2.9l-1.1,8.6c-0.1,0.9-0.1,1.6-0.1,2.2
			c0,0.5,0.2,1.2,0.5,2h-7c-0.2-0.5-0.4-0.9-0.4-1.2c0-0.3-0.1-0.7-0.1-1.2c-1.1,0.9-2.2,1.6-3.2,2c-1.4,0.5-3,0.8-4.7,0.8
			c-2.3,0-4-0.5-5.1-1.6c-1.1-1.1-1.5-2.4-1.3-4c0.2-1.5,0.8-2.7,1.7-3.7c1-1,2.7-1.7,5.1-2.1c2.9-0.6,4.7-1,5.6-1.2
			c0.9-0.2,1.8-0.5,2.8-0.9c0.1-0.9,0-1.6-0.3-1.9c-0.3-0.4-1-0.5-1.9-0.5c-1.2,0-2.2,0.2-2.8,0.6C89.6,20.2,89.2,20.7,88.8,21.6z
			 M94.8,25.5c-1.1,0.4-2.2,0.7-3.3,1c-1.6,0.4-2.6,0.8-3,1.2c-0.5,0.4-0.7,0.9-0.8,1.4c-0.1,0.6,0.1,1.1,0.4,1.4
			c0.4,0.4,1,0.6,1.7,0.6c0.8,0,1.6-0.2,2.4-0.6c0.8-0.4,1.3-0.9,1.7-1.5c0.4-0.6,0.6-1.3,0.7-2.3L94.8,25.5z"/>
	</g>
</g>
</svg>
